<svg width="56" height="56" viewBox="0 0 56 56" fill="none" xmlns="http://www.w3.org/2000/svg">
<path d="M28 4.66602C15.113 4.66602 4.66663 15.1123 4.66663 27.9993C4.66663 40.8863 15.113 51.3327 28 51.3327C40.887 51.3327 51.3333 40.8863 51.3333 27.9993C51.3333 15.1123 40.887 4.66602 28 4.66602ZM33.1403 37.0271C32.1953 37.9721 30.9936 38.5482 29.6986 38.7349V39.666C29.6986 40.632 28.9146 41.416 27.9486 41.416C26.9826 41.416 26.1986 40.632 26.1986 39.666V38.7303C23.5316 38.2963 21.4153 36.1474 21.1026 33.3801C20.9953 32.4188 21.6859 31.5531 22.6473 31.4458C23.5946 31.3268 24.4743 32.0291 24.5816 32.9904C24.731 34.3204 25.851 35.3238 27.1856 35.3238H28.819C29.5143 35.3238 30.17 35.0506 30.667 34.5536C31.164 34.0566 31.4369 33.4009 31.4369 32.7056C31.4369 31.5039 30.6203 30.461 29.4513 30.1646L25.6993 29.2338C24.3693 28.8955 23.1839 28.123 22.3533 27.052C21.5273 26.0067 21.0653 24.6673 21.0653 23.2976C21.0653 20.262 23.2936 17.7537 26.1986 17.28V16.3327C26.1986 15.3667 26.9826 14.5827 27.9486 14.5827C28.9146 14.5827 29.6986 15.3667 29.6986 16.3327V17.2567C32.4146 17.651 34.5846 19.8139 34.8996 22.6186C35.007 23.5799 34.3163 24.4456 33.355 24.5529C32.3843 24.6649 31.528 23.9696 31.4206 23.0083C31.2713 21.6783 30.1513 20.6749 28.8166 20.6749H27.1833C25.7389 20.6749 24.5653 21.8488 24.5653 23.2931C24.5653 23.8788 24.7589 24.4479 25.1089 24.8913C25.4776 25.3673 25.9723 25.6894 26.551 25.8341L30.303 26.7649C33.033 27.4556 34.9369 29.8964 34.9369 32.701C34.9346 34.3344 34.2976 35.8697 33.1403 37.0271Z" fill="#0057FF"/>
</svg>
