<svg width="56" height="56" viewBox="0 0 56 56" fill="none" xmlns="http://www.w3.org/2000/svg">
<path d="M29.75 11.666V6.41602L40.25 16.916H35C31.3133 16.916 29.75 15.3527 29.75 11.666ZM41.7898 27.3227L27.8599 41.346C27.2065 41.9994 26.8333 42.886 26.8333 43.8193V45.966C26.8333 46.3627 26.5299 46.666 26.1332 46.666H14C9.33333 46.666 7 44.3327 7 39.666V11.666C7 6.99935 9.33333 4.66602 14 4.66602H26.25V11.666C26.25 17.3127 29.3533 20.416 35 20.416H42V26.8327C42 27.0193 41.9298 27.206 41.7898 27.3227ZM18.0833 34.9993C18.0833 34.0333 17.2993 33.2493 16.3333 33.2493C15.3673 33.2493 14.5833 34.0333 14.5833 34.9993C14.5833 35.9653 15.3673 36.7493 16.3333 36.7493C17.2993 36.7493 18.0833 35.9653 18.0833 34.9993ZM18.0833 25.666C18.0833 24.7 17.2993 23.916 16.3333 23.916C15.3673 23.916 14.5833 24.7 14.5833 25.666C14.5833 26.632 15.3673 27.416 16.3333 27.416C17.2993 27.416 18.0833 26.632 18.0833 25.666ZM27.4167 34.9993C27.4167 34.0333 26.6327 33.2493 25.6667 33.2493H22.1667C21.2007 33.2493 20.4167 34.0333 20.4167 34.9993C20.4167 35.9653 21.2007 36.7493 22.1667 36.7493H25.6667C26.6327 36.7493 27.4167 35.9653 27.4167 34.9993ZM34.4167 25.666C34.4167 24.7 33.6327 23.916 32.6667 23.916H22.1667C21.2007 23.916 20.4167 24.7 20.4167 25.666C20.4167 26.632 21.2007 27.416 22.1667 27.416H32.6667C33.6327 27.416 34.4167 26.632 34.4167 25.666ZM30.3333 43.8193V48.9993H35.5133L44.8466 39.7127L39.62 34.486L30.3333 43.8193ZM48.3933 33.2493L46.0833 30.9394C45.2667 30.1227 43.96 30.1227 43.1433 30.9394L41.2532 32.8526L46.4798 38.0794L48.3933 36.1894C49.21 35.3727 49.21 34.066 48.3933 33.2493Z" fill="#0057FF"/>
</svg>
