<svg width="56" height="56" viewBox="0 0 56 56" fill="none" xmlns="http://www.w3.org/2000/svg">
<path d="M28.0422 4.66602C22.8155 7.25835 18.6667 9.33268 7 11.666C7 14.319 7 22.6372 7 25.4068C7 40.9632 20.223 48.7403 28 51.3327C35.777 48.7403 49 40.9632 49 25.4068C49 22.5485 49 14.452 49 11.666C37.3333 9.33268 33.1848 7.25835 28.0422 4.66602ZM36.2646 24.5694L26.9313 33.9028C26.5906 34.2434 26.1426 34.416 25.6946 34.416C25.2466 34.416 24.7985 34.2458 24.4578 33.9028L19.7912 29.2361C19.1075 28.5524 19.1075 27.444 19.7912 26.7603C20.4748 26.0767 21.5833 26.0767 22.2669 26.7603L25.6969 30.1903L33.7935 22.0937C34.4771 21.41 35.5855 21.41 36.2692 22.0937C36.9529 22.7773 36.9483 23.8857 36.2646 24.5694Z" fill="#0057FF"/>
</svg>
