<svg width="40" height="40" viewBox="0 0 40 40" fill="none" xmlns="http://www.w3.org/2000/svg">
<path d="M29 14.5H18C17.448 14.5 17 14.052 17 13.5C17 12.948 17.448 12.5 18 12.5H29C29.552 12.5 30 12.948 30 13.5C30 14.052 29.552 14.5 29 14.5ZM30 20C30 19.448 29.552 19 29 19H18C17.448 19 17 19.448 17 20C17 20.552 17.448 21 18 21H29C29.552 21 30 20.552 30 20ZM30 26.5C30 25.948 29.552 25.5 29 25.5H18C17.448 25.5 17 25.948 17 26.5C17 27.052 17.448 27.5 18 27.5H29C29.552 27.5 30 27.052 30 26.5ZM14 13.5C14 12.672 13.328 12 12.5 12C11.672 12 11 12.672 11 13.5C11 14.328 11.672 15 12.5 15C13.328 15 14 14.328 14 13.5ZM14 20C14 19.172 13.328 18.5 12.5 18.5C11.672 18.5 11 19.172 11 20C11 20.828 11.672 21.5 12.5 21.5C13.328 21.5 14 20.828 14 20ZM14 26.5C14 25.672 13.328 25 12.5 25C11.672 25 11 25.672 11 26.5C11 27.328 11.672 28 12.5 28C13.328 28 14 27.328 14 26.5Z" fill="#8B94A4"/>
</svg>
