<svg width="40" height="40" viewBox="0 0 40 40" fill="none" xmlns="http://www.w3.org/2000/svg">
<path d="M26.5 18.75H23.5C22.091 18.75 21.25 17.909 21.25 16.5V13.5C21.25 12.091 22.091 11.25 23.5 11.25H26.5C27.909 11.25 28.75 12.091 28.75 13.5V16.5C28.75 17.909 27.909 18.75 26.5 18.75ZM23.5 12.75C22.911 12.75 22.75 12.911 22.75 13.5V16.5C22.75 17.089 22.911 17.25 23.5 17.25H26.5C27.089 17.25 27.25 17.089 27.25 16.5V13.5C27.25 12.911 27.089 12.75 26.5 12.75H23.5ZM16.5 18.75H13.5C12.091 18.75 11.25 17.909 11.25 16.5V13.5C11.25 12.091 12.091 11.25 13.5 11.25H16.5C17.909 11.25 18.75 12.091 18.75 13.5V16.5C18.75 17.909 17.909 18.75 16.5 18.75ZM13.5 12.75C12.911 12.75 12.75 12.911 12.75 13.5V16.5C12.75 17.089 12.911 17.25 13.5 17.25H16.5C17.089 17.25 17.25 17.089 17.25 16.5V13.5C17.25 12.911 17.089 12.75 16.5 12.75H13.5ZM26.5 28.75H23.5C22.091 28.75 21.25 27.909 21.25 26.5V23.5C21.25 22.091 22.091 21.25 23.5 21.25H26.5C27.909 21.25 28.75 22.091 28.75 23.5V26.5C28.75 27.909 27.909 28.75 26.5 28.75ZM23.5 22.75C22.911 22.75 22.75 22.911 22.75 23.5V26.5C22.75 27.089 22.911 27.25 23.5 27.25H26.5C27.089 27.25 27.25 27.089 27.25 26.5V23.5C27.25 22.911 27.089 22.75 26.5 22.75H23.5ZM16.5 28.75H13.5C12.091 28.75 11.25 27.909 11.25 26.5V23.5C11.25 22.091 12.091 21.25 13.5 21.25H16.5C17.909 21.25 18.75 22.091 18.75 23.5V26.5C18.75 27.909 17.909 28.75 16.5 28.75ZM13.5 22.75C12.911 22.75 12.75 22.911 12.75 23.5V26.5C12.75 27.089 12.911 27.25 13.5 27.25H16.5C17.089 27.25 17.25 27.089 17.25 26.5V23.5C17.25 22.911 17.089 22.75 16.5 22.75H13.5Z" fill="#8B94A4"/>
</svg>
